<?xml version="1.0" encoding="UTF-8"?>
<!DOCTYPE svg PUBLIC "-//W3C//DTD SVG 1.1//EN" "http://www.w3.org/Graphics/SVG/1.1/DTD/svg11.dtd">
<!-- Creator: CorelDRAW X7 -->
<svg xmlns="http://www.w3.org/2000/svg" xml:space="preserve" width="216.127mm" height="46.381mm" version="1.1" style="shape-rendering:geometricPrecision; text-rendering:geometricPrecision; image-rendering:optimizeQuality; fill-rule:evenodd; clip-rule:evenodd"
viewBox="0 0 21613 4638"
 xmlns:xlink="http://www.w3.org/1999/xlink">
 <defs>
  <style type="text/css">
   <![CDATA[
    .fil2 {fill:black}
    .fil0 {fill:#009B4C}
    .fil1 {fill:#009B4C;fill-rule:nonzero}
   ]]>
  </style>
 </defs>
 <g id="Layer_x0020_1">
  <metadata id="CorelCorpID_0Corel-Layer"/>
  <g id="_851029856">
   <g>
    <g>
     <path class="fil0" d="M3301 1723l-1032 -517c-26,-13 -55,-13 -81,0l-1032 517c-31,16 -51,46 -51,81 0,36 20,66 51,82l1032 515c13,6 26,8 42,8 13,0 28,-2 41,-8l1033 -515c30,-16 50,-46 50,-82 -2,-35 -22,-65 -53,-81zm-1074 496l-828 -415 828 -414 829 414 -829 415z"/>
    </g>
   </g>
   <g>
    <g>
     <path class="fil0" d="M3341 2795c-22,-44 -77,-63 -123,-41l-991 497 -990 -495c-44,-22 -99,-5 -123,41 -22,44 -4,99 42,123l1032 513c13,7 26,9 42,9 13,0 28,-2 41,-9l1033 -515c41,-24 59,-77 37,-123z"/>
    </g>
   </g>
   <g>
    <g>
     <path class="fil0" d="M3341 2280c-22,-44 -77,-63 -123,-42l-991 496 -990 -496c-44,-21 -99,-4 -123,42 -22,44 -4,99 42,123l1032 515c13,6 26,9 42,9 13,0 28,-3 41,-9l1033 -515c41,-24 59,-79 37,-123z"/>
    </g>
   </g>
  </g>
  <path class="fil1" d="M3837 766l4 851 580 598c50,52 50,134 1,186l0 0 -574 604 5 851c0,74 -60,134 -134,135l-810 4 -572 602c-51,53 -135,55 -189,4 -2,-2 -4,-3 -6,-5l-575 -595 -811 4c-74,1 -134,-59 -135,-133l-4 -851 -579 -598c-51,-52 -51,-134 -1,-186l0 0 573 -604 -4 -851c0,-74 59,-134 133,-135l811 -4 571 -602c51,-53 136,-55 190,-4 2,2 4,3 5,5l576 595 811 -4c74,-1 134,59 134,133zm-263 906l-4 -771 -728 3c-37,2 -75,-11 -103,-40l-520 -537 -514 542 0 0c-25,26 -59,41 -97,42l-734 3 4 765c2,36 -10,72 -37,100l-522 550 528 544 0 0c23,24 37,57 37,93l4 771 728 -3c38,-2 75,11 103,40l520 537 515 -542 0 0c24,-26 58,-41 96,-42l734 -3 -3 -765c-2,-35 10,-72 36,-100l522 -550 -527 -544 0 0c-23,-24 -38,-57 -38,-93z"/>
  <path class="fil0" d="M6593 3633l-378 0 0 -684 -658 0 0 684 -377 0 0 -1620 377 0 0 678 658 0 0 -678 378 0 0 1620zm678 0l-378 0 0 -1620 378 0 0 1620zm1769 -811c0,118 -20,226 -61,325 -40,99 -97,184 -170,256 -74,73 -162,129 -265,169 -104,41 -218,61 -344,61l-629 0 0 -1620 629 0c126,0 240,20 344,61 103,41 191,97 265,169 73,72 130,157 170,256 41,100 61,207 61,323zm-385 0c0,-80 -10,-152 -31,-216 -21,-65 -50,-120 -89,-164 -39,-45 -87,-80 -143,-104 -56,-24 -121,-36 -192,-36l-251 0 0 1042 251 0c71,0 136,-12 192,-36 56,-24 104,-59 143,-103 39,-45 68,-100 89,-165 21,-64 31,-137 31,-218zm2005 810l-292 0c-32,0 -59,-8 -80,-23 -21,-15 -36,-34 -44,-58l-96 -282 -615 0 -96 282c-7,21 -21,39 -43,56 -21,16 -48,25 -79,25l-293 0 627 -1620 384 0 627 1620zm-1040 -619l442 0 -149 -437c-10,-28 -21,-60 -34,-98 -13,-38 -26,-78 -38,-122 -12,44 -24,86 -37,124 -13,38 -24,70 -36,98l-148 435zm1755 13l0 607 -375 0 0 -607 -587 -1013 331 0c33,0 59,8 78,23 19,16 35,36 46,60l229 480c19,38 36,73 51,106 16,32 30,64 42,96 11,-32 24,-65 40,-97 15,-33 32,-68 50,-105l226 -480c5,-10 11,-20 19,-30 8,-10 16,-18 26,-26 10,-8 22,-15 35,-20 13,-4 27,-7 42,-7l334 0 -587 1013zm1982 606l-291 0c-32,0 -59,-8 -80,-23 -21,-15 -36,-34 -44,-58l-96 -282 -615 0 -96 282c-7,21 -22,39 -43,56 -22,16 -48,25 -79,25l-293 0 626 -1620 385 0 626 1620zm-1040 -619l443 0 -149 -437c-10,-28 -21,-60 -34,-98 -13,-38 -26,-78 -39,-122 -11,44 -24,86 -36,124 -13,38 -25,70 -36,98l-149 435zm2169 -1000l0 298 -455 0 0 1322 -376 0 0 -1322 -455 0 0 -298 1286 0zm829 1322c50,0 96,-8 135,-25 40,-17 73,-40 101,-71 27,-31 48,-70 63,-114 14,-45 21,-96 21,-153l0 -959 376 0 0 960c0,99 -16,190 -49,273 -32,83 -78,155 -138,215 -60,60 -133,107 -219,140 -86,33 -183,50 -290,50 -108,0 -205,-17 -291,-50 -86,-33 -159,-80 -219,-140 -60,-60 -106,-132 -138,-215 -32,-83 -47,-174 -47,-273l0 -960 375 0 0 958c0,57 7,108 22,152 14,45 35,83 63,115 27,31 61,55 100,72 40,17 85,25 135,25zm1316 -2l600 0 0 300 -976 0 0 -1620 376 0 0 1320zm1153 0l600 0 0 300 -976 0 0 -1620 376 0 0 1320zm2284 299l-291 0c-32,0 -59,-8 -80,-23 -21,-15 -36,-34 -44,-58l-96 -282 -615 0 -96 282c-7,21 -22,39 -43,56 -22,16 -48,25 -79,25l-293 0 626 -1620 385 0 626 1620zm-1040 -619l443 0 -149 -437c-10,-28 -21,-60 -34,-98 -13,-38 -26,-78 -39,-122 -11,44 -24,86 -36,124 -13,38 -25,70 -36,98l-149 435zm2585 620l-378 0 0 -684 -658 0 0 684 -378 0 0 -1620 378 0 0 678 658 0 0 -678 378 0 0 1620z"/>
  <path class="fil2" d="M5739 956c-5,10 -10,17 -16,20 -7,4 -14,6 -23,6 -8,0 -18,-3 -29,-10 -10,-7 -23,-14 -38,-22 -14,-8 -31,-16 -51,-22 -19,-7 -42,-10 -69,-10 -24,0 -45,3 -62,8 -18,6 -33,14 -46,25 -12,10 -21,22 -27,37 -6,14 -9,30 -9,47 0,22 6,40 18,54 13,15 29,27 49,38 20,10 43,19 69,27 26,9 52,17 79,27 27,9 53,19 78,32 26,12 49,27 69,46 20,19 37,42 49,68 12,27 18,60 18,99 0,42 -7,81 -21,118 -15,36 -36,68 -63,96 -28,27 -62,48 -102,64 -40,16 -85,23 -137,23 -29,0 -59,-3 -87,-8 -29,-6 -57,-14 -83,-25 -26,-11 -51,-24 -74,-39 -23,-15 -43,-31 -61,-50l50 -83c4,-6 10,-11 17,-15 7,-4 14,-6 22,-6 11,0 22,4 35,13 12,9 27,19 44,29 17,11 37,21 60,30 23,8 50,13 82,13 50,0 88,-12 115,-35 27,-24 40,-57 40,-101 0,-24 -6,-44 -18,-60 -12,-15 -28,-28 -49,-39 -20,-10 -43,-19 -68,-26 -26,-8 -52,-16 -79,-24 -26,-9 -53,-19 -78,-31 -26,-12 -49,-28 -69,-47 -20,-19 -36,-44 -49,-73 -12,-29 -18,-64 -18,-107 0,-34 7,-67 20,-99 14,-32 33,-60 59,-85 26,-25 58,-45 96,-60 38,-15 81,-23 129,-23 55,0 106,9 152,26 46,17 86,42 118,73l-42 81zm352 101l0 660 -159 0 0 -660 159 0zm24 -193c0,14 -3,27 -9,39 -5,12 -12,22 -22,32 -9,9 -20,16 -32,21 -13,5 -26,8 -40,8 -14,0 -27,-3 -39,-8 -12,-5 -23,-12 -32,-21 -9,-10 -16,-20 -21,-32 -6,-12 -9,-25 -9,-39 0,-14 3,-27 9,-40 5,-12 12,-23 21,-32 9,-9 20,-16 32,-22 12,-5 25,-8 39,-8 14,0 27,3 40,8 12,6 23,13 32,22 10,9 17,20 22,32 6,13 9,26 9,40zm547 322c-4,6 -8,11 -13,14 -5,3 -11,4 -18,4 -8,0 -16,-2 -25,-6 -9,-5 -19,-9 -30,-15 -12,-5 -25,-10 -40,-14 -15,-4 -32,-7 -52,-7 -32,0 -56,7 -74,20 -18,14 -27,31 -27,52 0,15 4,26 13,36 10,10 22,18 37,26 15,7 33,13 52,19 19,6 39,12 59,19 20,7 40,15 59,24 20,8 37,20 52,33 15,14 28,30 37,49 9,19 14,41 14,68 0,32 -6,61 -18,88 -11,26 -28,50 -51,69 -22,20 -49,35 -82,46 -33,11 -71,16 -113,16 -23,0 -45,-2 -67,-6 -21,-4 -42,-10 -62,-17 -20,-7 -39,-16 -56,-26 -16,-9 -32,-20 -44,-32l36 -61c5,-7 11,-13 17,-17 6,-3 15,-5 24,-5 10,0 20,2 29,8 8,6 18,12 30,18 12,6 25,12 41,18 16,6 35,8 59,8 19,0 36,-2 49,-6 14,-5 25,-11 34,-18 8,-7 15,-16 19,-25 4,-10 6,-20 6,-30 0,-16 -5,-28 -14,-38 -9,-10 -21,-19 -37,-26 -15,-7 -32,-14 -52,-20 -19,-5 -39,-12 -59,-19 -21,-6 -41,-14 -60,-24 -20,-9 -37,-21 -52,-35 -16,-14 -28,-31 -37,-52 -9,-20 -14,-45 -14,-74 0,-27 5,-53 16,-77 11,-25 27,-46 47,-64 21,-19 47,-33 78,-44 31,-11 67,-16 108,-16 45,0 87,7 124,22 37,15 69,35 93,59l-36 58zm388 541c-57,0 -101,-16 -132,-48 -31,-33 -46,-78 -46,-135l0 -369 -67 0c-9,0 -16,-3 -22,-8 -7,-6 -10,-14 -10,-25l0 -63 106 -18 34 -179c1,-9 6,-15 12,-20 6,-5 14,-7 23,-7l82 0 0 207 174 0 0 113 -174 0 0 358c0,21 6,37 16,48 10,12 24,18 41,18 10,0 18,-2 25,-4 7,-2 12,-5 17,-7 5,-3 10,-5 13,-8 4,-2 8,-3 12,-3 5,0 9,1 12,3 3,3 6,6 9,11l48 78c-23,19 -50,34 -80,44 -30,9 -61,14 -93,14zm554 -680c41,0 80,6 115,19 35,14 65,33 90,59 25,26 45,57 59,94 14,38 22,80 22,128 0,12 -1,22 -2,30 -1,8 -3,14 -6,19 -3,4 -6,7 -11,9 -5,2 -11,3 -18,3l-408 0c5,68 23,117 55,148 31,32 73,48 126,48 25,0 48,-3 66,-9 19,-6 35,-13 49,-20 14,-7 27,-14 37,-20 11,-6 21,-9 30,-9 7,0 12,2 17,4 5,3 9,6 12,11l47 58c-18,21 -38,38 -59,52 -22,14 -45,25 -69,33 -24,9 -48,15 -73,18 -24,4 -48,5 -71,5 -46,0 -89,-7 -128,-23 -40,-15 -74,-37 -103,-67 -30,-30 -53,-67 -69,-111 -17,-44 -25,-95 -25,-153 0,-45 7,-87 21,-127 15,-40 36,-74 63,-104 28,-29 61,-53 100,-70 39,-17 84,-25 133,-25zm3 114c-46,0 -83,13 -109,39 -26,27 -43,64 -50,112l299 0c0,-21 -3,-40 -9,-59 -5,-18 -14,-34 -25,-48 -12,-13 -27,-24 -44,-32 -18,-8 -38,-12 -62,-12zm412 556l0 -660 97 0c21,0 34,9 41,29l10 49c11,-13 24,-25 36,-36 13,-10 27,-20 41,-27 14,-8 30,-14 46,-19 17,-4 35,-6 54,-6 42,0 76,11 103,33 27,23 47,53 60,90 11,-22 23,-41 39,-56 15,-16 32,-29 51,-38 18,-10 38,-18 59,-22 21,-5 41,-7 62,-7 37,0 69,5 98,16 28,11 52,28 71,49 19,22 34,48 44,79 10,31 15,66 15,106l0 420 -159 0 0 -420c0,-42 -9,-74 -27,-95 -19,-21 -46,-32 -82,-32 -16,0 -31,3 -45,8 -14,6 -26,14 -36,24 -11,11 -19,24 -25,40 -6,16 -9,34 -9,55l0 420 -160 0 0 -420c0,-44 -9,-77 -27,-97 -17,-20 -44,-30 -78,-30 -23,0 -44,6 -64,17 -20,11 -39,27 -56,47l0 483 -159 0zm2167 -465c0,68 -11,131 -34,188 -23,57 -55,106 -96,147 -41,41 -91,73 -148,96 -58,23 -123,34 -193,34l-355 0 0 -930 355 0c70,0 135,11 193,34 57,23 107,55 148,96 41,41 73,90 96,147 23,57 34,120 34,188zm-177 0c0,-51 -7,-97 -20,-138 -14,-40 -34,-75 -59,-103 -25,-28 -56,-49 -92,-64 -36,-15 -77,-23 -123,-23l-181 0 0 655 181 0c46,0 87,-7 123,-22 36,-15 67,-37 92,-65 25,-28 45,-62 59,-103 13,-40 20,-86 20,-137zm821 465l-71 0c-15,0 -27,-2 -36,-7 -8,-4 -15,-13 -19,-27l-14 -47c-17,15 -33,28 -49,39 -16,12 -33,21 -50,29 -17,8 -35,14 -55,18 -19,3 -41,5 -64,5 -28,0 -54,-4 -77,-11 -24,-8 -44,-19 -61,-34 -17,-15 -30,-34 -40,-56 -9,-22 -14,-48 -14,-78 0,-25 7,-50 20,-74 13,-24 35,-46 65,-66 31,-20 71,-36 122,-49 50,-13 113,-19 188,-19l0 -39c0,-44 -9,-77 -28,-99 -18,-21 -46,-32 -81,-32 -26,0 -47,3 -65,9 -17,6 -31,13 -44,20 -13,8 -25,15 -35,21 -11,6 -23,9 -36,9 -10,0 -20,-3 -27,-9 -8,-5 -14,-12 -19,-20l-29 -51c76,-70 168,-105 275,-105 38,0 73,6 103,19 30,13 56,30 77,53 21,22 37,49 48,81 11,31 16,65 16,103l0 417zm-309 -99c17,0 32,-2 45,-5 14,-3 27,-7 39,-13 13,-6 25,-14 36,-22 11,-9 23,-19 34,-31l0 -111c-46,0 -85,3 -116,9 -31,6 -56,14 -75,23 -19,9 -32,20 -40,32 -8,12 -12,25 -12,39 0,28 8,49 25,61 16,12 38,18 64,18zm683 109c-58,0 -102,-16 -132,-48 -31,-33 -47,-78 -47,-135l0 -369 -67 0c-8,0 -16,-3 -22,-8 -6,-6 -9,-14 -9,-25l0 -63 106 -18 33 -179c2,-9 6,-15 12,-20 7,-5 14,-7 24,-7l82 0 0 207 174 0 0 113 -174 0 0 358c0,21 5,37 16,48 10,12 24,18 41,18 10,0 18,-2 25,-4 6,-2 12,-5 17,-7 5,-3 9,-5 13,-8 4,-2 8,-3 12,-3 4,0 8,1 11,3 3,3 7,6 10,11l48 78c-24,19 -50,34 -80,44 -30,9 -61,14 -93,14zm798 -10l-71 0c-15,0 -27,-2 -36,-7 -8,-4 -15,-13 -19,-27l-14 -47c-17,15 -33,28 -49,39 -16,12 -33,21 -50,29 -17,8 -36,14 -55,18 -19,3 -41,5 -64,5 -28,0 -54,-4 -78,-11 -23,-8 -43,-19 -60,-34 -17,-15 -31,-34 -40,-56 -9,-22 -14,-48 -14,-78 0,-25 7,-50 20,-74 13,-24 34,-46 65,-66 30,-20 71,-36 121,-49 51,-13 114,-19 189,-19l0 -39c0,-44 -9,-77 -28,-99 -19,-21 -46,-32 -81,-32 -26,0 -48,3 -65,9 -17,6 -32,13 -44,20 -13,8 -25,15 -36,21 -10,6 -22,9 -35,9 -11,0 -20,-3 -28,-9 -7,-5 -14,-12 -18,-20l-29 -51c76,-70 167,-105 275,-105 38,0 73,6 103,19 30,13 56,30 77,53 21,22 37,49 48,81 11,31 16,65 16,103l0 417zm-309 -99c17,0 32,-2 45,-5 14,-3 27,-7 39,-13 13,-6 24,-14 36,-22 11,-9 22,-19 34,-31l0 -111c-46,0 -85,3 -116,9 -31,6 -56,14 -75,23 -19,9 -32,20 -40,32 -8,12 -12,25 -12,39 0,28 8,49 25,61 16,12 38,18 64,18zm467 99l0 -956 159 0 0 377c26,-28 56,-50 89,-67 33,-16 72,-24 116,-24 36,0 69,7 99,22 30,15 55,36 77,64 22,29 38,64 50,106 12,41 18,89 18,143 0,50 -7,95 -20,137 -13,42 -32,79 -57,110 -25,31 -54,55 -89,72 -35,18 -75,26 -118,26 -20,0 -39,-2 -55,-6 -17,-4 -32,-10 -46,-17 -14,-7 -26,-16 -38,-27 -12,-11 -23,-22 -34,-35l-7 44c-3,11 -7,19 -13,24 -6,5 -15,7 -26,7l-105 0zm309 -547c-33,0 -61,7 -84,21 -24,14 -46,34 -66,59l0 296c18,22 38,38 59,46 22,9 44,14 69,14 24,0 46,-5 65,-14 20,-9 36,-23 50,-41 13,-18 24,-42 31,-70 7,-28 11,-61 11,-99 0,-39 -3,-72 -9,-98 -7,-27 -16,-49 -27,-66 -12,-16 -26,-29 -42,-36 -17,-8 -36,-12 -57,-12zm940 547l-71 0c-15,0 -27,-2 -35,-7 -9,-4 -15,-13 -20,-27l-14 -47c-17,15 -33,28 -49,39 -16,12 -33,21 -50,29 -17,8 -35,14 -55,18 -19,3 -40,5 -64,5 -28,0 -54,-4 -77,-11 -24,-8 -44,-19 -61,-34 -17,-15 -30,-34 -40,-56 -9,-22 -14,-48 -14,-78 0,-25 7,-50 20,-74 13,-24 35,-46 65,-66 31,-20 71,-36 122,-49 50,-13 113,-19 188,-19l0 -39c0,-44 -9,-77 -28,-99 -18,-21 -45,-32 -81,-32 -26,0 -47,3 -64,9 -18,6 -32,13 -45,20 -13,8 -25,15 -35,21 -11,6 -23,9 -36,9 -10,0 -20,-3 -27,-9 -8,-5 -14,-12 -19,-20l-29 -51c76,-70 168,-105 275,-105 38,0 73,6 103,19 30,13 56,30 77,53 21,22 37,49 48,81 11,31 16,65 16,103l0 417zm-308 -99c16,0 31,-2 45,-5 13,-3 26,-7 39,-13 12,-6 24,-14 35,-22 11,-9 23,-19 34,-31l0 -111c-46,0 -85,3 -116,9 -31,6 -56,14 -75,23 -19,9 -32,20 -40,32 -8,12 -12,25 -12,39 0,28 8,49 25,61 16,12 38,18 65,18zm857 -432c-5,6 -9,11 -14,14 -5,3 -11,4 -18,4 -8,0 -16,-2 -25,-6 -8,-5 -19,-9 -30,-15 -12,-5 -25,-10 -40,-14 -15,-4 -32,-7 -52,-7 -32,0 -56,7 -74,20 -18,14 -27,31 -27,52 0,15 4,26 14,36 9,10 21,18 36,26 16,7 33,13 52,19 19,6 39,12 59,19 20,7 40,15 59,24 20,8 37,20 52,33 16,14 28,30 37,49 9,19 14,41 14,68 0,32 -6,61 -18,88 -11,26 -28,50 -50,69 -23,20 -50,35 -83,46 -33,11 -71,16 -113,16 -23,0 -45,-2 -67,-6 -21,-4 -42,-10 -62,-17 -20,-7 -38,-16 -55,-26 -17,-9 -32,-20 -45,-32l37 -61c4,-7 10,-13 16,-17 7,-3 15,-5 25,-5 10,0 19,2 28,8 9,6 19,12 30,18 12,6 26,12 41,18 16,6 36,8 60,8 19,0 35,-2 48,-6 14,-5 25,-11 34,-18 9,-7 15,-16 19,-25 4,-10 6,-20 6,-30 0,-16 -4,-28 -14,-38 -9,-10 -21,-19 -36,-26 -16,-7 -33,-14 -52,-20 -20,-5 -40,-12 -60,-19 -21,-6 -41,-14 -60,-24 -20,-9 -37,-21 -52,-35 -15,-14 -28,-31 -37,-52 -9,-20 -14,-45 -14,-74 0,-27 5,-53 16,-77 11,-25 27,-46 48,-64 20,-19 46,-33 77,-44 32,-11 67,-16 108,-16 46,0 87,7 124,22 38,15 69,35 94,59l-36 58zm443 -139c42,0 80,6 115,19 35,14 65,33 90,59 26,26 45,57 59,94 15,38 22,80 22,128 0,12 -1,22 -2,30 -1,8 -3,14 -6,19 -2,4 -6,7 -11,9 -5,2 -11,3 -18,3l-408 0c5,68 23,117 55,148 31,32 74,48 126,48 26,0 48,-3 67,-9 18,-6 35,-13 48,-20 14,-7 27,-14 37,-20 11,-6 21,-9 31,-9 6,0 12,2 16,4 5,3 9,6 13,11l46 58c-18,21 -37,38 -59,52 -22,14 -45,25 -69,33 -24,9 -48,15 -72,18 -25,4 -49,5 -72,5 -46,0 -89,-7 -128,-23 -40,-15 -74,-37 -103,-67 -29,-30 -52,-67 -69,-111 -17,-44 -25,-95 -25,-153 0,-45 7,-87 22,-127 14,-40 35,-74 62,-104 28,-29 61,-53 100,-70 39,-17 84,-25 133,-25zm3 114c-46,0 -82,13 -109,39 -26,27 -42,64 -50,112l299 0c0,-21 -3,-40 -9,-59 -5,-18 -14,-34 -25,-48 -12,-13 -26,-24 -44,-32 -18,-8 -38,-12 -62,-12z"/>
  <rect class="fil2" x="15041" y="1477" width="6572" height="227"/>
  <polygon class="fil0" points="1248,1819 2229,2319 3223,1812 2250,1286 "/>
 </g>
</svg>
