<?xml version="1.0" encoding="UTF-8"?>
<!DOCTYPE svg PUBLIC "-//W3C//DTD SVG 1.1//EN" "http://www.w3.org/Graphics/SVG/1.1/DTD/svg11.dtd">
<!-- Creator: CorelDRAW X7 -->
<svg xmlns="http://www.w3.org/2000/svg" xml:space="preserve" width="201.783mm" height="209.901mm" version="1.1" style="shape-rendering:geometricPrecision; text-rendering:geometricPrecision; image-rendering:optimizeQuality; fill-rule:evenodd; clip-rule:evenodd"
viewBox="0 0 20178 20990"
 xmlns:xlink="http://www.w3.org/1999/xlink">
 <defs>
  <style type="text/css">
   <![CDATA[
    .fil0 {fill:#009B4C}
   ]]>
  </style>
 </defs>
 <g id="Layer_x0020_1">
  <metadata id="CorelCorpID_0Corel-Layer"/>
  <path class="fil0" d="M14940 7800l-4671 -2341c-119,-59 -248,-59 -367,0l-4672 2341c-138,69 -228,208 -228,367 0,158 90,297 228,367l4672 2330c59,30 119,40 188,40 60,0 129,-10 189,-40l4671 -2330c139,-70 228,-209 228,-367 -10,-159 -99,-298 -238,-367zm179 4850c-99,-199 -347,-288 -556,-189l-4483 2252 -4483 -2242c-198,-99 -446,-20 -555,189 -99,198 -20,446 188,555l4672 2321c59,30 119,40 188,40 60,0 129,-10 189,-40l4671 -2331c189,-109 268,-347 169,-555zm0 -2331c-99,-198 -347,-288 -556,-188l-4483 2241 -4483 -2241c-198,-100 -446,-20 -555,188 -99,198 -20,446 188,555l4672 2331c59,30 119,40 188,40 60,0 129,-10 189,-40l4671 -2331c189,-109 268,-357 169,-555zm2246 -6852l19 3851 2623 2707c227,234 228,606 4,840l0 0 -2595 2734 19 3853c1,334 -269,606 -603,607l-3668 19 -2586 2724c-231,242 -615,252 -857,21 -9,-8 -18,-17 -26,-26l-2605 -2689 -3669 18c-334,2 -607,-268 -608,-603l-19 -3851 -2623 -2707c-227,-234 -228,-606 -4,-840l0 0 2595 -2734 -19 -3853c-1,-334 269,-606 603,-607l3668 -19 2586 -2724c231,-242 615,-252 857,-21 9,9 18,17 26,26l2605 2689 3669 -18c335,-2 607,268 608,603zm-1190 4101l-18 -3491 -3294 17c-168,8 -339,-53 -466,-183l-2353 -2429 -2328 2452 -1 0c-110,115 -264,187 -436,188l-3322 16 17 3460c9,162 -46,326 -166,452l-2362 2488 2386 2464 0 1c105,108 171,256 171,419l18 3491 3294 -17c169,-8 339,53 466,183l2353 2429 2328 -2452 1 0c110,-115 264,-187 436,-188l3322 -16 -17 -3460c-9,-161 46,-326 166,-452l2362 -2488 -2386 -2464 0 -1c-105,-108 -171,-256 -171,-419z"/>
 </g>
</svg>
